<svg width="24" height="24" viewBox="0 0 24 24" fill="none" xmlns="http://www.w3.org/2000/svg">
<path fill-rule="evenodd" clip-rule="evenodd" d="M6.49445 15.7599C5.82872 15.7599 5.18011 15.9708 4.64171 16.3624L4.47399 16.4843C3.57326 17.1394 4.03663 18.5644 5.15039 18.5644H12.6695C13.7832 18.5644 14.2466 17.1394 13.3459 16.4843L13.1782 16.3624C12.6398 15.9708 11.9911 15.7599 11.3254 15.7599H6.49445ZM3.64182 14.9875C4.47078 14.3846 5.46944 14.0599 6.49445 14.0599H11.3254C12.3504 14.0599 13.3491 14.3846 14.178 14.9875L14.3458 15.1095C16.578 16.7329 15.4296 20.2644 12.6695 20.2644H5.15039C2.39022 20.2644 1.24185 16.7329 3.4741 15.1095L3.64182 14.9875Z" fill="#F2F8FF"/>
<path fill-rule="evenodd" clip-rule="evenodd" d="M8.91015 5.84999C7.38937 5.84999 6.15654 7.08282 6.15654 8.6036C6.15654 10.1244 7.38937 11.3572 8.91015 11.3572C10.4309 11.3572 11.6638 10.1244 11.6638 8.6036C11.6638 7.08282 10.4309 5.84999 8.91015 5.84999ZM4.45654 8.6036C4.45654 6.14394 6.45049 4.14999 8.91015 4.14999C11.3698 4.14999 13.3638 6.14394 13.3638 8.6036C13.3638 11.0633 11.3698 13.0572 8.91015 13.0572C6.45049 13.0572 4.45654 11.0633 4.45654 8.6036Z" fill="#F2F8FF"/>
<path fill-rule="evenodd" clip-rule="evenodd" d="M16.3194 11.7937C15.9031 11.7937 15.4976 11.9256 15.1609 12.1704C14.6246 12.5605 14.9005 13.409 15.5637 13.409H20.0492C20.7124 13.409 20.9883 12.5605 20.4519 12.1704C20.1153 11.9256 19.7097 11.7937 19.2935 11.7937H16.3194ZM14.4551 11.1999C14.9969 10.8059 15.6495 10.5937 16.3194 10.5937H19.2935C19.9633 10.5937 20.616 10.8059 21.1577 11.1999C22.634 12.2736 21.8745 14.609 20.0492 14.609H15.5637C13.7383 14.609 12.9789 12.2736 14.4551 11.1999Z" fill="#F2F8FF"/>
<path fill-rule="evenodd" clip-rule="evenodd" d="M17.8064 5.59999C16.8938 5.59999 16.1541 6.33973 16.1541 7.25225C16.1541 8.16476 16.8938 8.9045 17.8064 8.9045C18.7189 8.9045 19.4586 8.16476 19.4586 7.25225C19.4586 6.33973 18.7189 5.59999 17.8064 5.59999ZM14.9541 7.25225C14.9541 5.67699 16.2311 4.39999 17.8064 4.39999C19.3816 4.39999 20.6586 5.67699 20.6586 7.25225C20.6586 8.8275 19.3816 10.1045 17.8064 10.1045C16.2311 10.1045 14.9541 8.8275 14.9541 7.25225Z" fill="#F2F8FF"/>
</svg>
