<svg width="24" height="24" viewBox="0 0 24 24" fill="none" xmlns="http://www.w3.org/2000/svg">
<path fill-rule="evenodd" clip-rule="evenodd" d="M18.51 7.31995C18.8855 7.60162 18.9616 8.1344 18.68 8.50995L14.48 14.11C13.4132 15.5323 11.15 14.7778 11.15 13V11C11.15 10.9478 11.1358 10.9237 11.1252 10.9098C11.1107 10.8909 11.0846 10.8701 11.0474 10.8577C11.0101 10.8452 10.9768 10.8463 10.9538 10.8527C10.937 10.8574 10.9112 10.8682 10.88 10.91L6.67995 16.51C6.39829 16.8855 5.86551 16.9616 5.48995 16.68C5.1144 16.3983 5.03829 15.8655 5.31995 15.49L9.51995 9.88995C10.5867 8.46765 12.85 9.22208 12.85 11V13C12.85 13.0521 12.8641 13.0762 12.8747 13.0901C12.8892 13.109 12.9153 13.1298 12.9525 13.1423C12.9898 13.1547 13.0231 13.1536 13.0461 13.1472C13.0629 13.1425 13.0887 13.1317 13.12 13.09L17.32 7.48995C17.6016 7.1144 18.1344 7.03829 18.51 7.31995Z" fill="#150B00"/>
</svg>
