<svg width="24" height="24" viewBox="0 0 24 24" fill="none" xmlns="http://www.w3.org/2000/svg">
<path fill-rule="evenodd" clip-rule="evenodd" d="M5.83448 8.55355C6.06514 6.05859 8.1583 4.15002 10.6639 4.15002H16.7127C19.5234 4.15002 21.7455 6.53158 21.5511 9.33551L21.3431 12.3355C21.1668 14.8778 19.0531 16.85 16.5047 16.85H10.3865C7.53164 16.85 5.29432 14.3963 5.55713 11.5535L5.83448 8.55355ZM10.6639 5.85002C9.03655 5.85002 7.67707 7.08961 7.52727 8.71004L7.24992 11.71C7.07922 13.5564 8.53233 15.15 10.3865 15.15H16.5047C18.1599 15.15 19.5327 13.8691 19.6472 12.2179L19.8552 9.21791C19.9815 7.39681 18.5382 5.85002 16.7127 5.85002H10.6639Z" fill="#150B00"/>
<path fill-rule="evenodd" clip-rule="evenodd" d="M6.56046 10.8479C7.02871 10.8145 7.38119 10.4078 7.34774 9.9395L7.04676 5.72576C6.90285 3.71103 5.2264 2.15006 3.20654 2.15006H2.9999C2.53046 2.15006 2.1499 2.53062 2.1499 3.00006C2.1499 3.4695 2.53046 3.85006 2.9999 3.85006H3.20654C4.33452 3.85006 5.27072 4.72177 5.35108 5.84688L5.65206 10.0606C5.68551 10.5289 6.09221 10.8813 6.56046 10.8479Z" fill="#150B00"/>
<path d="M11 20C11 21.1046 10.1046 22 9 22C7.89543 22 7 21.1046 7 20C7 18.8954 7.89543 18 9 18C10.1046 18 11 18.8954 11 20Z" fill="#150B00"/>
<path d="M20 20C20 21.1046 19.1046 22 18 22C16.8954 22 16 21.1046 16 20C16 18.8954 16.8954 18 18 18C19.1046 18 20 18.8954 20 20Z" fill="#150B00"/>
</svg>
