<svg width="43" height="43" viewBox="0 0 43 43" fill="none" xmlns="http://www.w3.org/2000/svg">
<path d="M16.125 5.375C13.1723 5.375 10.75 7.79733 10.75 10.75C7.79733 10.75 5.375 13.1723 5.375 16.125V32.25C5.375 35.2027 7.79733 37.625 10.75 37.625H26.875C29.8277 37.625 32.25 35.2027 32.25 32.25C35.2027 32.25 37.625 29.8277 37.625 26.875V10.75C37.625 7.79733 35.2027 5.375 32.25 5.375H16.125ZM16.125 8.0625H32.25C33.7505 8.0625 34.9375 9.24948 34.9375 10.75V26.875C34.9375 28.3755 33.7505 29.5625 32.25 29.5625H14.7812C14.022 29.5625 13.4375 28.978 13.4375 28.2188V18.8125H16.125V24.1875C16.125 25.6563 17.3437 26.875 18.8125 26.875H24.1875H26.875H29.5625C31.0313 26.875 32.25 25.6563 32.25 24.1875V14.7812C32.25 12.5708 30.4292 10.75 28.2188 10.75H13.4375C13.4375 9.24948 14.6245 8.0625 16.125 8.0625ZM10.75 13.4375H28.2188C28.978 13.4375 29.5625 14.022 29.5625 14.7812V24.1875H26.875V18.8125C26.875 17.3437 25.6563 16.125 24.1875 16.125H18.8125H16.125H13.4375C11.9687 16.125 10.75 17.3437 10.75 18.8125V28.2188C10.75 30.4292 12.5708 32.25 14.7812 32.25H29.5625C29.5625 33.7505 28.3755 34.9375 26.875 34.9375H10.75C9.24948 34.9375 8.0625 33.7505 8.0625 32.25V16.125C8.0625 14.6245 9.24948 13.4375 10.75 13.4375ZM18.8125 18.8125H24.1875V24.1875H18.8125V18.8125Z" fill="#150B00"/>
</svg>
