<svg width="24" height="24" viewBox="0 0 24 24" fill="none" xmlns="http://www.w3.org/2000/svg">
<path fill-rule="evenodd" clip-rule="evenodd" d="M11.1369 15.5737C13.5873 15.5737 15.5737 13.5873 15.5737 11.1369C15.5737 8.68645 13.5873 6.7 11.1369 6.7C8.68645 6.7 6.7 8.68645 6.7 11.1369C6.7 13.5873 8.68645 15.5737 11.1369 15.5737ZM11.1369 17.2737C14.5262 17.2737 17.2737 14.5262 17.2737 11.1369C17.2737 7.74757 14.5262 5 11.1369 5C7.74757 5 5 7.74757 5 11.1369C5 14.5262 7.74757 17.2737 11.1369 17.2737Z" fill="#F2F8FF"/>
<path fill-rule="evenodd" clip-rule="evenodd" d="M14.9194 14.9193C14.5875 15.2512 14.5875 15.7894 14.9194 16.1214L17.3991 18.601C17.731 18.933 18.2692 18.933 18.6011 18.601C18.9331 18.2691 18.9331 17.7309 18.6011 17.399L16.1215 14.9193C15.7895 14.5873 15.2513 14.5873 14.9194 14.9193Z" fill="#F2F8FF"/>
</svg>
