<svg width="24" height="24" viewBox="0 0 24 24" fill="none" xmlns="http://www.w3.org/2000/svg">
<path fill-rule="evenodd" clip-rule="evenodd" d="M6.49445 15.7599C5.82872 15.7599 5.18011 15.9708 4.64171 16.3624L4.47399 16.4843C3.57326 17.1394 4.03663 18.5644 5.15039 18.5644H12.6695C13.7832 18.5644 14.2466 17.1394 13.3459 16.4843L13.1782 16.3624C12.6398 15.9708 11.9911 15.7599 11.3254 15.7599H6.49445ZM3.64182 14.9875C4.47078 14.3846 5.46944 14.0599 6.49445 14.0599H11.3254C12.3504 14.0599 13.3491 14.3846 14.178 14.9875L14.3458 15.1095C16.578 16.7329 15.4296 20.2644 12.6695 20.2644H5.15039C2.39022 20.2644 1.24185 16.7329 3.4741 15.1095L3.64182 14.9875Z" fill="#150B00"/>
<path fill-rule="evenodd" clip-rule="evenodd" d="M8.90966 5.84999C7.38889 5.84999 6.15605 7.08282 6.15605 8.6036C6.15605 10.1244 7.38889 11.3572 8.90966 11.3572C10.4304 11.3572 11.6633 10.1244 11.6633 8.6036C11.6633 7.08282 10.4304 5.84999 8.90966 5.84999ZM4.45605 8.6036C4.45605 6.14394 6.45 4.14999 8.90966 4.14999C11.3693 4.14999 13.3633 6.14394 13.3633 8.6036C13.3633 11.0633 11.3693 13.0572 8.90966 13.0572C6.45 13.0572 4.45605 11.0633 4.45605 8.6036Z" fill="#150B00"/>
<path fill-rule="evenodd" clip-rule="evenodd" d="M16.3189 11.7937C15.9026 11.7937 15.4971 11.9256 15.1604 12.1704C14.6241 12.5605 14.9 13.409 15.5632 13.409H20.0487C20.7119 13.409 20.9878 12.5605 20.4514 12.1704C20.1148 11.9256 19.7092 11.7937 19.293 11.7937H16.3189ZM14.4546 11.1999C14.9964 10.8059 15.649 10.5937 16.3189 10.5937H19.293C19.9629 10.5937 20.6155 10.8059 21.1572 11.1999C22.6335 12.2736 21.874 14.609 20.0487 14.609H15.5632C13.7378 14.609 12.9784 12.2736 14.4546 11.1999Z" fill="#150B00"/>
<path fill-rule="evenodd" clip-rule="evenodd" d="M17.8064 5.59999C16.8938 5.59999 16.1541 6.33973 16.1541 7.25225C16.1541 8.16476 16.8938 8.9045 17.8064 8.9045C18.7189 8.9045 19.4586 8.16476 19.4586 7.25225C19.4586 6.33973 18.7189 5.59999 17.8064 5.59999ZM14.9541 7.25225C14.9541 5.67699 16.2311 4.39999 17.8064 4.39999C19.3816 4.39999 20.6586 5.67699 20.6586 7.25225C20.6586 8.8275 19.3816 10.1045 17.8064 10.1045C16.2311 10.1045 14.9541 8.8275 14.9541 7.25225Z" fill="#150B00"/>
</svg>
